<?xml version="1.0" encoding="utf-8"?>
<!-- Generator: Adobe Illustrator 21.0.0, SVG Export Plug-In . SVG Version: 6.00 Build 0)  -->
<svg version="1.1" id="Layer_1" xmlns="http://www.w3.org/2000/svg" xmlns:xlink="http://www.w3.org/1999/xlink" x="0px" y="0px"
	 viewBox="0 0 150 150" style="enable-background:new 0 0 150 150;" xml:space="preserve">
<style type="text/css">
	.st0{fill:#FEFEFE;}
	.st1{fill:#FFFFFF;}
	.st2{fill:#006AB6;}
	.st3{fill:#ED174B;}
</style>
<g id="Layer_1">
	<g>
		<circle class="st0" cx="75" cy="75" r="48"/>
		<path id="Fill-4_7_" class="st0" d="M121.6,75c0,25.7-20.9,46.6-46.6,46.6c-25.8,0-46.6-20.9-46.6-46.6
			c0-25.8,20.9-46.6,46.6-46.6C100.7,28.4,121.6,49.2,121.6,75"/>
		<path id="Fill-6_7_" class="st0" d="M114.8,75c0,22-17.8,39.8-39.8,39.8C53,114.8,35.2,97,35.2,75C35.2,53,53,35.2,75,35.2
			C97,35.2,114.8,53,114.8,75"/>
		<path id="Fill-8_7_" class="st0" d="M75,112.5c-15.9,0-29.5-9.9-34.9-23.9c6.7,9.1,19.8,15.3,34.9,15.3c15.1,0,28.3-6.2,34.9-15.3
			C104.5,102.5,90.9,112.5,75,112.5 M75,37.5c15.9,0,29.5,9.9,34.9,23.9c-6.7-9.1-19.8-15.3-34.9-15.3c-15.1,0-28.3,6.2-34.9,15.3
			C45.5,47.5,59.1,37.5,75,37.5 M37.6,76.2h7.3v-2.3h-7.3c0-0.9,0.1-1.8,0.2-2.6C40.3,58.1,56,48.1,75,48.1
			c19,0,34.7,10.1,37.3,23.1c0.1,0.9,0.1,1.7,0.2,2.6h-7.3v2.3h7.3c0,0.9-0.1,1.8-0.2,2.6C109.7,91.9,94,101.9,75,101.9
			c-19,0-34.7-10.1-37.3-23.1C37.6,77.9,37.6,77.1,37.6,76.2 M75,35.2c-21.9,0-39.8,17.8-39.8,39.8c0,21.9,17.8,39.8,39.8,39.8
			c21.9,0,39.8-17.8,39.8-39.8C114.8,53.1,96.9,35.2,75,35.2"/>
		<polygon id="Fill-10_7_" class="st0" points="58.2,88.7 61,88.7 61,76 58.2,76 		"/>
		<path id="Fill-12_7_" class="st0" d="M69,76L69,76c-0.9,0-3.7,0-4.3,0l-0.1,0c-0.8,0-1.4,0.4-1.5,1.1c0,0.1,0,0.2,0,0.2
			c0,0-0.2,2.4,0,3.1c0.4,1.1,1.3,1.5,2.1,1.7c0,0,0.1,0,0.1,0c0.1,0,0.1,0,0.2,0c0.1,0,0.2,0.1,0.2,0.1l0,4.5l-2.3,0l0,1.7l3.1,0h0
			c1.1,0,1.8-0.5,2.1-1.3c0.1-0.6,0.1-4.9,0-5.7c0-0.3-0.2-0.6-0.5-0.8c-0.1-0.1-0.3-0.2-0.5-0.3c-0.2-0.1-0.3-0.2-0.5-0.3
			c-0.7-0.3-1.4-0.7-1.4-1.5l0-0.7h2.2c0.5,0,0.8-0.2,1-0.6c0.2-0.3,0.2-0.6,0.2-0.7C69,76.5,69,76.3,69,76L69,76z"/>
		<path id="Fill-14_7_" class="st0" d="M80.9,78.9c0-0.3,0-0.6,0.1-0.8l0.1,0c0.1,0,0.2,0,0.4,0l0.1,0c1,0,1,0.3,1,2v5.3
			c0,0.2,0,0.3,0,0.5c0,0.2,0,0.3-0.1,0.4l-0.1,0c-0.2,0-0.3,0-0.5,0c-0.3,0-0.6-0.1-0.7-0.2c-0.2-0.2-0.2-0.6-0.2-1.1v-5.3
			C80.9,79.7,80.9,79.1,80.9,78.9 M81.8,76c-0.6,0-1.3,0-1.8,0.2c-1.4,0.3-2,1.3-2,2.8v7.5c0,1.9,1.4,2.3,3.4,2.3
			c2.5,0,3.9-0.9,3.9-2.4l0-7.8C85.3,76,83.7,76,81.8,76"/>
		<path id="Fill-16_7_" class="st0" d="M91.9,81.4c-1.3-4.9-3.5-5.4-4.4-5.4c-0.2,0-0.4,0-0.4,0l-0.1,0l0,12.6l2.8,0v-5.1l2,5.1h2.9
			V76.1h-2.9V81.4z"/>
		<path id="Fill-18_7_" class="st0" d="M53.6,81.6l-1.6,0V78c0,0,0.9,0,1,0c0.3,0,0.6,0.2,0.6,0.5C53.6,78.6,53.6,81.6,53.6,81.6
			 M54.8,76l-7.1,0l-0.1,0l0,0.1c0,0-0.1,1.5,1.6,1.8v10.7h2.9v-5.4h2.4c1.3,0,2-0.9,2-2.3l0-0.5C56.6,76.9,56.4,76.2,54.8,76"/>
		<path id="Fill-20_7_" class="st0" d="M77.1,76.1h-6.6v2h1.9v10.7l2.9,0l0-10.7c0,0,0.1,0,0.1,0c0.5,0,0.9-0.2,1.2-0.5
			C77.1,77,77.1,76.2,77.1,76.1L77.1,76.1z"/>
		<path id="Fill-22_7_" class="st0" d="M102.4,76L102.4,76c-0.9,0-3.7,0-4.3,0L98,76c-0.8,0-1.4,0.4-1.5,1.1c0,0.1,0,0.2,0,0.2
			c0,0-0.2,2.4,0,3.1c0.4,1.1,1.3,1.5,2.1,1.7c0,0,0.1,0,0.1,0c0.1,0,0.1,0,0.2,0c0.1,0,0.2,0.1,0.2,0.1l0,4.5l-2.3,0l0,1.7l3.1,0h0
			c1.1,0,1.8-0.5,2.1-1.3c0.1-0.6,0.1-4.9,0-5.7c0-0.3-0.2-0.6-0.5-0.8c-0.1-0.1-0.3-0.2-0.5-0.3c-0.2-0.1-0.3-0.2-0.5-0.3
			c-0.7-0.3-1.4-0.7-1.4-1.5l0-0.7h2.2c0.5,0,0.8-0.2,1-0.6c0.2-0.3,0.2-0.6,0.2-0.7C102.4,76.5,102.4,76.3,102.4,76L102.4,76z"/>
		<path id="Fill-24_7_" class="st0" d="M76.6,63.1l0.5,0l0.1,0c0.7,0,1,0,1,1.3c0,1,0,1.1,0,1.6l0,0.1c0,0.1-0.1,0.3-0.2,0.4
			c-0.1,0.1-0.1,0.1-0.2,0.1h-1.1V63.1z M76.6,68.2h0.5c0.5,0,1.3,0.2,1.3,1c0,0.4,0,1.7,0,2.1l0,0.2c0,0.1,0,0.7,0.1,0.8
			c0.2,0.7,0.8,1.2,1.7,1.3h0.8v-4.5c0-0.4-0.2-0.9-0.5-1.3l-0.1-0.1c0.5-0.5,0.6-1,0.6-1.8l0-0.4c0-3.5-0.1-4.2-1.8-4.4h-5.5v12.3
			h2.8V68.2z"/>
		<polygon id="Fill-26_7_" class="st0" points="94,61.2 91.3,61.2 91.3,73.5 94,73.5 		"/>
		<path id="Fill-28_7_" class="st0" d="M67.7,73.5l2.8,0l0-10.4c0,0,0.1,0,0.1,0c0.5,0,0.9-0.2,1.2-0.5c0.5-0.5,0.5-1.3,0.5-1.4
			l0-0.1h-6.4v1.9h1.8V73.5z"/>
		<path id="Fill-30_7_" class="st0" d="M97.3,73.5l2.8,0V63.1c0,0,0.1,0,0.1,0c0.5,0,0.9-0.2,1.2-0.5c0.5-0.5,0.5-1.3,0.5-1.4l0-0.1
			h-6.4v1.9h1.8V73.5z"/>
		<polygon id="Fill-32_7_" class="st0" points="64.4,71.5 61.5,71.5 61.5,68.5 63.5,68.5 63.5,65.8 61.5,65.8 61.5,63 64.4,63 
			64.4,61.2 58.7,61.2 58.7,73.5 64.4,73.5 		"/>
		<path id="Fill-34_7_" class="st0" d="M54.2,71.5h-1.6v-8.4c1,0,1.2,0,1.2,0.1c0.4,0.1,0.4,0.8,0.4,0.8
			C54.2,64.9,54.2,70.7,54.2,71.5 M55.1,61.2h-7l0,0.1c0,0-0.1,0.7,0.4,1.3c0.3,0.3,0.7,0.5,1.3,0.6v10.4H55c1.2,0,2-1,2-2.5l0-5.7
			C57,62.1,57,61.2,55.1,61.2"/>
		<path id="Fill-36_7_" class="st0" d="M85.4,63.9c0-0.3,0-0.6,0.1-0.8l0.1,0c0.1,0,0.2,0,0.4,0H86c0.9,0,1,0.3,1,2v5.2
			c0,0.2,0,0.3,0,0.5c0,0.1,0,0.3-0.1,0.4l-0.1,0c-0.2,0-0.3,0-0.5,0c-0.3,0-0.6-0.1-0.7-0.2c-0.2-0.2-0.2-0.6-0.2-1v-5.2
			C85.4,64.7,85.4,64.1,85.4,63.9 M86.3,61.2c-0.6,0-1.3,0-1.8,0.2c-1.4,0.3-2,1.2-2,2.8v7.4c0,1.9,1.4,2.3,3.4,2.3
			c2.5,0,3.9-0.9,3.9-2.4l0-7.7C89.8,61.2,88.2,61.2,86.3,61.2"/>
	</g>
	<g>
		<circle class="st1" cx="75" cy="75" r="48"/>
		<path id="Fill-4_6_" class="st2" d="M121.6,75c0,25.7-20.9,46.6-46.6,46.6c-25.8,0-46.6-20.9-46.6-46.6
			c0-25.8,20.9-46.6,46.6-46.6C100.7,28.4,121.6,49.2,121.6,75"/>
		<path id="Fill-6_6_" class="st3" d="M114.8,75c0,22-17.8,39.8-39.8,39.8C53,114.8,35.2,97,35.2,75C35.2,53,53,35.2,75,35.2
			C97,35.2,114.8,53,114.8,75"/>
		<path id="Fill-8_6_" class="st0" d="M75,112.5c-15.9,0-29.5-9.9-34.9-23.9c6.7,9.1,19.8,15.3,34.9,15.3c15.1,0,28.3-6.2,34.9-15.3
			C104.5,102.5,90.9,112.5,75,112.5 M75,37.5c15.9,0,29.5,9.9,34.9,23.9c-6.7-9.1-19.8-15.3-34.9-15.3c-15.1,0-28.3,6.2-34.9,15.3
			C45.5,47.5,59.1,37.5,75,37.5 M37.6,76.2h7.3v-2.3h-7.3c0-0.9,0.1-1.8,0.2-2.6C40.3,58.1,56,48.1,75,48.1
			c19,0,34.7,10.1,37.3,23.1c0.1,0.9,0.1,1.7,0.2,2.6h-7.3v2.3h7.3c0,0.9-0.1,1.8-0.2,2.6C109.7,91.9,94,101.9,75,101.9
			c-19,0-34.7-10.1-37.3-23.1C37.6,77.9,37.6,77.1,37.6,76.2 M75,35.2c-21.9,0-39.8,17.8-39.8,39.8c0,21.9,17.8,39.8,39.8,39.8
			c21.9,0,39.8-17.8,39.8-39.8C114.8,53.1,96.9,35.2,75,35.2"/>
		<polygon id="Fill-10_6_" class="st0" points="58.2,88.7 61,88.7 61,76 58.2,76 		"/>
		<path id="Fill-12_6_" class="st0" d="M69,76L69,76c-0.9,0-3.7,0-4.3,0l-0.1,0c-0.8,0-1.4,0.4-1.5,1.1c0,0.1,0,0.2,0,0.2
			c0,0-0.2,2.4,0,3.1c0.4,1.1,1.3,1.5,2.1,1.7c0,0,0.1,0,0.1,0c0.1,0,0.1,0,0.2,0c0.1,0,0.2,0.1,0.2,0.1l0,4.5l-2.3,0l0,1.7l3.1,0h0
			c1.1,0,1.8-0.5,2.1-1.3c0.1-0.6,0.1-4.9,0-5.7c0-0.3-0.2-0.6-0.5-0.8c-0.1-0.1-0.3-0.2-0.5-0.3c-0.2-0.1-0.3-0.2-0.5-0.3
			c-0.7-0.3-1.4-0.7-1.4-1.5l0-0.7h2.2c0.5,0,0.8-0.2,1-0.6c0.2-0.3,0.2-0.6,0.2-0.7C69,76.5,69,76.3,69,76L69,76z"/>
		<path id="Fill-14_6_" class="st0" d="M80.9,78.9c0-0.3,0-0.6,0.1-0.8l0.1,0c0.1,0,0.2,0,0.4,0l0.1,0c1,0,1,0.3,1,2v5.3
			c0,0.2,0,0.3,0,0.5c0,0.2,0,0.3-0.1,0.4l-0.1,0c-0.2,0-0.3,0-0.5,0c-0.3,0-0.6-0.1-0.7-0.2c-0.2-0.2-0.2-0.6-0.2-1.1v-5.3
			C80.9,79.7,80.9,79.1,80.9,78.9 M81.8,76c-0.6,0-1.3,0-1.8,0.2c-1.4,0.3-2,1.3-2,2.8v7.5c0,1.9,1.4,2.3,3.4,2.3
			c2.5,0,3.9-0.9,3.9-2.4l0-7.8C85.3,76,83.7,76,81.8,76"/>
		<path id="Fill-16_6_" class="st0" d="M91.9,81.4c-1.3-4.9-3.5-5.4-4.4-5.4c-0.2,0-0.4,0-0.4,0l-0.1,0l0,12.6l2.8,0v-5.1l2,5.1h2.9
			V76.1h-2.9V81.4z"/>
		<path id="Fill-18_6_" class="st0" d="M53.6,81.6l-1.6,0V78c0,0,0.9,0,1,0c0.3,0,0.6,0.2,0.6,0.5C53.6,78.6,53.6,81.6,53.6,81.6
			 M54.8,76l-7.1,0l-0.1,0l0,0.1c0,0-0.1,1.5,1.6,1.8v10.7h2.9v-5.4h2.4c1.3,0,2-0.9,2-2.3l0-0.5C56.6,76.9,56.4,76.2,54.8,76"/>
		<path id="Fill-20_6_" class="st0" d="M77.1,76.1h-6.6v2h1.9v10.7l2.9,0l0-10.7c0,0,0.1,0,0.1,0c0.5,0,0.9-0.2,1.2-0.5
			C77.1,77,77.1,76.2,77.1,76.1L77.1,76.1z"/>
		<path id="Fill-22_6_" class="st0" d="M102.4,76L102.4,76c-0.9,0-3.7,0-4.3,0L98,76c-0.8,0-1.4,0.4-1.5,1.1c0,0.1,0,0.2,0,0.2
			c0,0-0.2,2.4,0,3.1c0.4,1.1,1.3,1.5,2.1,1.7c0,0,0.1,0,0.1,0c0.1,0,0.1,0,0.2,0c0.1,0,0.2,0.1,0.2,0.1l0,4.5l-2.3,0l0,1.7l3.1,0h0
			c1.1,0,1.8-0.5,2.1-1.3c0.1-0.6,0.1-4.9,0-5.7c0-0.3-0.2-0.6-0.5-0.8c-0.1-0.1-0.3-0.2-0.5-0.3c-0.2-0.1-0.3-0.2-0.5-0.3
			c-0.7-0.3-1.4-0.7-1.4-1.5l0-0.7h2.2c0.5,0,0.8-0.2,1-0.6c0.2-0.3,0.2-0.6,0.2-0.7C102.4,76.5,102.4,76.3,102.4,76L102.4,76z"/>
		<path id="Fill-24_6_" class="st0" d="M76.6,63.1l0.5,0l0.1,0c0.7,0,1,0,1,1.3c0,1,0,1.1,0,1.6l0,0.1c0,0.1-0.1,0.3-0.2,0.4
			c-0.1,0.1-0.1,0.1-0.2,0.1h-1.1V63.1z M76.6,68.2h0.5c0.5,0,1.3,0.2,1.3,1c0,0.4,0,1.7,0,2.1l0,0.2c0,0.1,0,0.7,0.1,0.8
			c0.2,0.7,0.8,1.2,1.7,1.3h0.8v-4.5c0-0.4-0.2-0.9-0.5-1.3l-0.1-0.1c0.5-0.5,0.6-1,0.6-1.8l0-0.4c0-3.5-0.1-4.2-1.8-4.4h-5.5v12.3
			h2.8V68.2z"/>
		<polygon id="Fill-26_6_" class="st0" points="94,61.2 91.3,61.2 91.3,73.5 94,73.5 		"/>
		<path id="Fill-28_6_" class="st0" d="M67.7,73.5l2.8,0l0-10.4c0,0,0.1,0,0.1,0c0.5,0,0.9-0.2,1.2-0.5c0.5-0.5,0.5-1.3,0.5-1.4
			l0-0.1h-6.4v1.9h1.8V73.5z"/>
		<path id="Fill-30_6_" class="st0" d="M97.3,73.5l2.8,0V63.1c0,0,0.1,0,0.1,0c0.5,0,0.9-0.2,1.2-0.5c0.5-0.5,0.5-1.3,0.5-1.4l0-0.1
			h-6.4v1.9h1.8V73.5z"/>
		<polygon id="Fill-32_6_" class="st1" points="64.4,71.5 61.5,71.5 61.5,68.5 63.5,68.5 63.5,65.8 61.5,65.8 61.5,63 64.4,63 
			64.4,61.2 58.7,61.2 58.7,73.5 64.4,73.5 		"/>
		<path id="Fill-34_6_" class="st0" d="M54.2,71.5h-1.6v-8.4c1,0,1.2,0,1.2,0.1c0.4,0.1,0.4,0.8,0.4,0.8
			C54.2,64.9,54.2,70.7,54.2,71.5 M55.1,61.2h-7l0,0.1c0,0-0.1,0.7,0.4,1.3c0.3,0.3,0.7,0.5,1.3,0.6v10.4H55c1.2,0,2-1,2-2.5l0-5.7
			C57,62.1,57,61.2,55.1,61.2"/>
		<path id="Fill-36_6_" class="st0" d="M85.4,63.9c0-0.3,0-0.6,0.1-0.8l0.1,0c0.1,0,0.2,0,0.4,0H86c0.9,0,1,0.3,1,2v5.2
			c0,0.2,0,0.3,0,0.5c0,0.1,0,0.3-0.1,0.4l-0.1,0c-0.2,0-0.3,0-0.5,0c-0.3,0-0.6-0.1-0.7-0.2c-0.2-0.2-0.2-0.6-0.2-1v-5.2
			C85.4,64.7,85.4,64.1,85.4,63.9 M86.3,61.2c-0.6,0-1.3,0-1.8,0.2c-1.4,0.3-2,1.2-2,2.8v7.4c0,1.9,1.4,2.3,3.4,2.3
			c2.5,0,3.9-0.9,3.9-2.4l0-7.7C89.8,61.2,88.2,61.2,86.3,61.2"/>
	</g>
</g>
</svg>
